<svg width="128" height="128" viewBox="0 0 128 128" fill="none" xmlns="http://www.w3.org/2000/svg">
  <defs>
    <linearGradient id="paint0_linear" x1="0" y1="0" x2="128" y2="128" gradientUnits="userSpaceOnUse">
      <stop stop-color="#667eea"/>
      <stop offset="1" stop-color="#764ba2"/>
    </linearGradient>
    <filter id="filter0_d" x="30" y="25" width="70" height="85" filterUnits="userSpaceOnUse" color-interpolation-filters="sRGB">
      <feFlood flood-opacity="0" result="BackgroundImageFix"/>
      <feColorMatrix in="SourceAlpha" type="matrix" values="0 0 0 0 0 0 0 0 0 0 0 0 0 0 0 0 0 0 127 0"/>
      <feOffset dy="4"/>
      <feGaussianBlur stdDeviation="4"/>
      <feColorMatrix type="matrix" values="0 0 0 0 0 0 0 0 0 0 0 0 0 0 0 0 0 0 0.25 0"/>
      <feBlend mode="normal" in2="BackgroundImageFix" result="effect1_dropShadow"/>
      <feBlend mode="normal" in="SourceGraphic" in2="effect1_dropShadow" result="shape"/>
    </filter>
  </defs>
  <rect width="128" height="128" rx="28" fill="url(#paint0_linear)"/>
  <path d="M78.5 32H44.5C41.4624 32 39 34.4624 39 37.5V42.5C39 45.5376 41.4624 48 44.5 48H55.5V88.5C55.5 91.5376 57.9624 94 61 94H67C70.0376 94 72.5 91.5376 72.5 88.5V48H83.5C86.5376 48 89 45.5376 89 42.5V37.5C89 34.4624 86.5376 32 83.5 32H78.5Z" fill="white" filter="url(#filter0_d)"/>
  <path d="M75 55L50 85L60 85L55 105L80 75L70 75L75 55Z" fill="#FACC15" filter="url(#filter0_d)"/>
  <rect x="10" y="10" width="108" height="108" rx="24" stroke="white" stroke-opacity="0.1" stroke-width="2"/>
</svg>
